<?xml version="1.0" standalone="no"?>
<!DOCTYPE svg PUBLIC "-//W3C//DTD SVG 20010904//EN"
 "http://www.w3.org/TR/2001/REC-SVG-20010904/DTD/svg10.dtd">
<svg version="1.0" xmlns="http://www.w3.org/2000/svg"
 width="402.000000pt" height="402.000000pt" viewBox="0 0 402.000000 402.000000"
 preserveAspectRatio="xMidYMid meet">
<metadata>
Created by potrace 1.11, written by Peter Selinger 2001-2013
</metadata>
<g transform="translate(0.000000,402.000000) scale(0.100000,-0.100000)"
fill="#000000" stroke="none">
<path d="M2039 3961 c-34 -17 -65 -65 -73 -116 -19 -112 -25 -332 -9 -358 7
-13 -17 7 -86 71 -182 171 -276 232 -358 232 -74 0 -133 -68 -148 -171 -9 -58
-9 -272 -1 -329 14 -94 16 -106 25 -138 5 -18 10 -36 11 -40 13 -87 79 -235
139 -310 27 -35 31 -46 20 -53 -8 -5 -19 -9 -25 -9 -6 0 -21 -11 -33 -24 -19
-20 -21 -27 -11 -46 8 -15 18 -20 31 -17 10 3 22 1 25 -4 3 -5 0 -9 -7 -9 -21
0 -69 -62 -69 -90 0 -25 33 -64 44 -53 3 4 6 3 6 -1 0 -5 -30 -21 -60 -31 -8
-3 -201 -94 -260 -123 -30 -15 -56 -30 -58 -34 -2 -5 -8 -8 -14 -8 -21 0 -205
-130 -258 -182 -72 -72 -110 -116 -110 -127 0 -5 -4 -11 -8 -13 -16 -6 -80
-133 -97 -190 -21 -74 -24 -92 -30 -175 -2 -37 -6 -77 -8 -88 -6 -30 -18 -114
-17 -117 1 -2 -3 -15 -9 -30 -9 -23 -15 -58 -26 -143 -1 -11 4 -32 12 -47 10
-21 21 -28 43 -28 30 0 30 -1 31 -57 1 -105 21 -153 63 -153 21 0 24 -6 29
-52 11 -87 22 -152 38 -213 6 -22 13 -47 14 -55 5 -19 34 -121 39 -135 2 -5 7
-21 12 -35 4 -14 27 -64 51 -113 117 -232 319 -325 593 -273 79 16 141 62 161
123 13 40 7 134 -13 211 -3 14 22 20 97 25 42 3 75 16 75 30 0 7 6 5 13 -5 8
-9 27 -19 43 -21 16 -3 28 -8 27 -13 -1 -5 -12 -36 -23 -69 -71 -198 11 -306
230 -306 75 1 88 2 187 22 224 45 372 183 382 358 1 7 7 11 16 7 18 -7 55 27
56 52 3 44 7 71 22 122 9 30 16 84 15 120 0 36 5 83 13 105 7 22 14 42 14 45
1 3 5 13 8 23 22 58 22 57 31 102 3 17 8 41 11 55 27 135 36 388 20 550 -12
121 -11 186 4 204 13 15 18 113 7 124 -3 2 4 14 15 25 16 18 19 33 17 81 -3
51 -1 59 16 62 44 7 50 49 17 127 -20 47 -20 48 -2 42 13 -4 24 1 34 16 14 19
13 24 -4 54 l-20 33 53 20 c75 28 171 72 178 80 3 4 17 13 32 21 43 22 136
109 177 165 78 106 107 200 80 259 -28 61 -169 96 -436 109 -61 2 -63 4 -73
34 -24 72 -174 205 -295 260 -58 27 -167 61 -201 63 -6 1 -14 24 -18 52 -14
102 -74 231 -164 351 -56 75 -79 99 -135 142 -55 42 -79 48 -118 27z"/>
</g>
</svg>
